<mxfile host="65bd71144e">
    <diagram id="DyFq04FiFbYTHU8WMJFI" name="Page-1">
        <mxGraphModel dx="1663" dy="302" grid="1" gridSize="10" guides="1" tooltips="1" connect="1" arrows="1" fold="1" page="1" pageScale="1" pageWidth="850" pageHeight="1100" math="0" shadow="0">
            <root>
                <mxCell id="0"/>
                <mxCell id="1" parent="0"/>
                <mxCell id="4" value="&lt;b&gt;Google &lt;/b&gt;Cloud Platform" style="fillColor=#F6F6F6;strokeColor=none;shadow=0;gradientColor=none;fontSize=14;align=left;spacing=10;fontColor=#717171;9E9E9E;verticalAlign=top;spacingTop=-4;fontStyle=0;spacingLeft=40;html=1;whiteSpace=wrap;" parent="1" vertex="1">
                    <mxGeometry x="40" y="519" width="760" height="561" as="geometry"/>
                </mxCell>
                <mxCell id="5" value="" style="shape=mxgraph.gcp2.google_cloud_platform;fillColor=#F6F6F6;strokeColor=none;shadow=0;gradientColor=none;" parent="4" vertex="1">
                    <mxGeometry width="23" height="20" relative="1" as="geometry">
                        <mxPoint x="20" y="10" as="offset"/>
                    </mxGeometry>
                </mxCell>
                <mxCell id="7" value="" style="strokeColor=#dddddd;shadow=1;strokeWidth=1;rounded=1;absoluteArcSize=1;arcSize=2;" parent="4" vertex="1">
                    <mxGeometry x="40" y="337.60738819320215" width="660" height="203.93559928443648" as="geometry"/>
                </mxCell>
                <mxCell id="8" value="&lt;b&gt;tf-gcp-datalake&lt;br&gt;&lt;/b&gt;Cloud Storage" style="editableCssRules=.*;html=1;fontColor=#999999;shape=image;verticalLabelPosition=middle;verticalAlign=middle;labelPosition=right;align=left;spacingLeft=20;part=1;points=[];imageAspect=0;image=data:image/svg+xml,PHN2ZyB4bWxucz0iaHR0cDovL3d3dy53My5vcmcvMjAwMC9zdmciIHhtbG5zOnY9Imh0dHBzOi8vdmVjdGEuaW8vbmFubyIgd2lkdGg9IjIwIiBoZWlnaHQ9IjE2IiB2aWV3Qm94PSIwIDAgMjAgMTYiPiYjeGE7CTxzdHlsZSB0eXBlPSJ0ZXh0L2NzcyI+JiN4YTsJLnN0MHtmaWxsOiM0Mjg1ZjQ7fSYjeGE7CS5zdDF7ZmlsbDojNjY5ZGY2O30mI3hhOwkuc3Qye2ZpbGw6I2FlY2JmYTt9JiN4YTsJLnN0M3tmaWxsOiNmZmY7fSYjeGE7CTwvc3R5bGU+JiN4YTsJPHBhdGggY2xhc3M9InN0MiIgZD0iTTAgMGgyMHY3SDB6Ii8+JiN4YTsJPHBhdGggY2xhc3M9InN0MSIgZD0iTTE4IDBoMnY3aC0yeiIvPiYjeGE7CTxwYXRoIGNsYXNzPSJzdDAiIGQ9Ik0xOCA3bDItN2gtMnoiLz4mI3hhOwk8cGF0aCBjbGFzcz0ic3QxIiBkPSJNMCAwaDJ2N0gweiIvPiYjeGE7CTxnIGNsYXNzPSJzdDMiPiYjeGE7CQk8cGF0aCBkPSJNNCAzaDZ2MUg0eiIvPiYjeGE7CQk8cmVjdCB4PSIxMyIgeT0iMiIgd2lkdGg9IjMiIGhlaWdodD0iMyIgcng9IjEuNSIvPiYjeGE7CTwvZz4mI3hhOwk8cGF0aCBjbGFzcz0ic3QyIiBkPSJNMCA5aDIwdjdIMHoiLz4mI3hhOwk8cGF0aCBjbGFzcz0ic3QxIiBkPSJNMTggOWgydjdoLTJ6Ii8+JiN4YTsJPHBhdGggY2xhc3M9InN0MCIgZD0iTTE4IDE2bDItN2gtMnoiLz4mI3hhOwk8cGF0aCBjbGFzcz0ic3QxIiBkPSJNMCA5aDJ2N0gweiIvPiYjeGE7CTxnIGNsYXNzPSJzdDMiPiYjeGE7CQk8cGF0aCBkPSJNNCAxMmg2djFINHoiLz4mI3hhOwkJPHJlY3QgeD0iMTMiIHk9IjExIiB3aWR0aD0iMyIgaGVpZ2h0PSIzIiByeD0iMS41Ii8+JiN4YTsJPC9nPiYjeGE7PC9zdmc+;" parent="7" vertex="1">
                    <mxGeometry width="30" height="24" relative="1" as="geometry">
                        <mxPoint x="15" y="18" as="offset"/>
                    </mxGeometry>
                </mxCell>
                <mxCell id="9" value="landingzone/" style="html=1;verticalLabelPosition=bottom;align=center;labelBackgroundColor=#ffffff;verticalAlign=top;strokeWidth=2;strokeColor=#0080F0;shadow=0;dashed=0;shape=mxgraph.ios7.icons.folder;" parent="7" vertex="1">
                    <mxGeometry x="180" y="32.20035778175313" width="204.29" height="118.0679785330948" as="geometry"/>
                </mxCell>
                <mxCell id="10" value="iceberg/" style="html=1;verticalLabelPosition=bottom;align=center;labelBackgroundColor=#ffffff;verticalAlign=top;strokeWidth=2;strokeColor=#0080F0;shadow=0;dashed=0;shape=mxgraph.ios7.icons.folder;" parent="7" vertex="1">
                    <mxGeometry x="410" y="32.20035778175313" width="200" height="118.0679785330948" as="geometry"/>
                </mxCell>
                <mxCell id="11" value="" style="shape=image;verticalLabelPosition=bottom;labelBackgroundColor=default;verticalAlign=top;aspect=fixed;imageAspect=0;image=https://www.dremio.com/wp-content/uploads/2021/06/iceberg-logo-with-name.png;" parent="7" vertex="1">
                    <mxGeometry x="484.79" y="75.13416815742397" width="50.41" height="50" as="geometry"/>
                </mxCell>
                <mxCell id="12" value="" style="image;aspect=fixed;html=1;points=[];align=center;fontSize=12;image=img/lib/azure2/general/Files.svg;" parent="7" vertex="1">
                    <mxGeometry x="263.86" y="75.13416815742397" width="36.57" height="40" as="geometry"/>
                </mxCell>
                <mxCell id="6" value="" style="shape=image;verticalLabelPosition=bottom;labelBackgroundColor=default;verticalAlign=top;aspect=fixed;imageAspect=0;image=https://icon.icepanel.io/Technology/svg/HashiCorp-Terraform.svg;" parent="4" vertex="1">
                    <mxGeometry x="710" y="-29" width="80" height="80" as="geometry"/>
                </mxCell>
                <mxCell id="14" value="" style="strokeColor=#dddddd;shadow=1;strokeWidth=1;rounded=1;absoluteArcSize=1;arcSize=2;" parent="4" vertex="1">
                    <mxGeometry x="390" y="150" width="310" height="144.67" as="geometry"/>
                </mxCell>
                <mxCell id="15" value="BigQuery" style="editableCssRules=.*;html=1;fontColor=#999999;shape=image;verticalLabelPosition=middle;verticalAlign=middle;labelPosition=right;align=left;spacingLeft=20;part=1;points=[];imageAspect=0;image=data:image/svg+xml,PHN2ZyB4bWxucz0iaHR0cDovL3d3dy53My5vcmcvMjAwMC9zdmciIHhtbG5zOnY9Imh0dHBzOi8vdmVjdGEuaW8vbmFubyIgd2lkdGg9IjIwLjAwMTA0NTIyNzA1MDc4IiBoZWlnaHQ9IjIwLjAwMTA0NTIyNzA1MDc4IiBmaWxsLXJ1bGU9ImV2ZW5vZGQiIHZpZXdCb3g9IjAgMCAyMC4wMDEwNDUyMjcwNTA3OCAyMC4wMDEwNDUyMjcwNTA3OCI+JiN4YTsJPHN0eWxlIHR5cGU9InRleHQvY3NzIj4mI3hhOwkuc3Qwe2ZpbGw6I2FlY2JmYTt9JiN4YTsJLnN0MXtmaWxsOiM2NjlkZjY7fSYjeGE7CS5zdDJ7ZmlsbDojNDI4NWY0O30mI3hhOwk8L3N0eWxlPiYjeGE7CTxwYXRoIGNsYXNzPSJzdDAiIGQ9Ik00LjczIDguODN2Mi42M2E0LjkxIDQuOTEgMCAwIDAgMS43MSAxLjc0VjguODN6Ii8+JiN4YTsJPHBhdGggY2xhc3M9InN0MSIgZD0iTTcuODkgNi40MXY3LjUzQTcuNjIgNy42MiAwIDAgMCA5IDE0YTggOCAwIDAgMCAxIDBWNi40MXoiLz4mI3hhOwk8cGF0aCBjbGFzcz0ic3QwIiBkPSJNMTEuNjQgOS44NnYzLjI5YTUgNSAwIDAgMCAxLjctMS44MlY5Ljg2eiIvPiYjeGE7CTxwYXRoIGNsYXNzPSJzdDIiIGQ9Ik0xNS43NCAxNC4zMmwtMS40MiAxLjQyYS40Mi40MiAwIDAgMCAwIC42bDMuNTQgMy41NGEuNDIuNDIgMCAwIDAgLjU5IDBsMS40My0xLjQzYS40Mi40MiAwIDAgMCAwLS41OWwtMy41NC0zLjU0YS40Mi40MiAwIDAgMC0uNiAwIi8+JiN4YTsJPHBhdGggY2xhc3M9InN0MSIgZD0iTTkgMGE5IDkgMCAxIDAgMCAxOEE5IDkgMCAxIDAgOSAwbTAgMTUuNjlhNi42OCA2LjY4IDAgMCAxIC4wMDctMTMuMzYgNi42OCA2LjY4IDAgMCAxIDQuNzI3IDExLjQwM0E2LjY4IDYuNjggMCAwIDEgOSAxNS42OSIvPiYjeGE7PC9zdmc+;" parent="14" vertex="1">
                    <mxGeometry width="30" height="30" relative="1" as="geometry">
                        <mxPoint x="15" y="15" as="offset"/>
                    </mxGeometry>
                </mxCell>
                <mxCell id="16" value="&lt;h5 style=&quot;margin-top: 1px;&quot;&gt;&lt;b&gt;&lt;font style=&quot;font-size: 10px;&quot;&gt;datalake (Dataset)&lt;/font&gt;&lt;/b&gt;&lt;/h5&gt;&lt;div&gt;&lt;b&gt;&lt;br&gt;&lt;/b&gt;&lt;/div&gt;&lt;div&gt;&lt;b&gt;&lt;br&gt;&lt;/b&gt;&lt;/div&gt;&lt;div&gt;&lt;b&gt;&lt;br&gt;&lt;/b&gt;&lt;/div&gt;&lt;div&gt;&lt;br&gt;&lt;/div&gt;" style="shape=cylinder3;whiteSpace=wrap;html=1;boundedLbl=1;backgroundOutline=1;size=15;align=center;fillColor=#dae8fc;strokeColor=#6c8ebf;" parent="14" vertex="1">
                    <mxGeometry x="100.54054054054055" y="38.949615384615385" width="167.56756756756758" height="89.0276923076923" as="geometry"/>
                </mxCell>
                <mxCell id="61" value="External Table (Iceberg)" style="shape=table;startSize=30;container=1;collapsible=1;childLayout=tableLayout;fixedRows=1;rowLines=0;fontStyle=1;align=center;resizeLast=1;html=1;fontSize=10;" parent="14" vertex="1" collapsed="1">
                    <mxGeometry x="110" y="83.46554812499998" width="150" height="16.69130125" as="geometry">
                        <mxRectangle x="135" y="130" width="170" height="80" as="alternateBounds"/>
                    </mxGeometry>
                </mxCell>
                <mxCell id="62" value="" style="shape=tableRow;horizontal=0;startSize=0;swimlaneHead=0;swimlaneBody=0;fillColor=none;collapsible=0;dropTarget=0;points=[[0,0.5],[1,0.5]];portConstraint=eastwest;top=0;left=0;right=0;bottom=1;" parent="61" vertex="1">
                    <mxGeometry y="16.692692307692308" width="170" height="20" as="geometry"/>
                </mxCell>
                <mxCell id="63" value="" style="shape=partialRectangle;connectable=0;fillColor=none;top=0;left=0;bottom=0;right=0;fontStyle=1;overflow=hidden;whiteSpace=wrap;html=1;" parent="62" vertex="1">
                    <mxGeometry width="30" height="20" as="geometry">
                        <mxRectangle width="30" height="20" as="alternateBounds"/>
                    </mxGeometry>
                </mxCell>
                <mxCell id="64" value="" style="shape=partialRectangle;connectable=0;fillColor=none;top=0;left=0;bottom=0;right=0;align=left;spacingLeft=6;fontStyle=5;overflow=hidden;whiteSpace=wrap;html=1;" parent="62" vertex="1">
                    <mxGeometry x="30" width="140" height="20" as="geometry">
                        <mxRectangle width="140" height="20" as="alternateBounds"/>
                    </mxGeometry>
                </mxCell>
                <mxCell id="65" value="" style="shape=tableRow;horizontal=0;startSize=0;swimlaneHead=0;swimlaneBody=0;fillColor=none;collapsible=0;dropTarget=0;points=[[0,0.5],[1,0.5]];portConstraint=eastwest;top=0;left=0;right=0;bottom=0;" parent="61" vertex="1">
                    <mxGeometry y="27.821153846153848" width="170" height="30" as="geometry"/>
                </mxCell>
                <mxCell id="66" value="" style="shape=partialRectangle;connectable=0;fillColor=none;top=0;left=0;bottom=0;right=0;editable=1;overflow=hidden;whiteSpace=wrap;html=1;" parent="65" vertex="1">
                    <mxGeometry width="30" height="30" as="geometry">
                        <mxRectangle width="30" height="30" as="alternateBounds"/>
                    </mxGeometry>
                </mxCell>
                <mxCell id="67" value="" style="shape=partialRectangle;connectable=0;fillColor=none;top=0;left=0;bottom=0;right=0;align=left;spacingLeft=6;overflow=hidden;whiteSpace=wrap;html=1;" parent="65" vertex="1">
                    <mxGeometry x="30" width="140" height="30" as="geometry">
                        <mxRectangle width="140" height="30" as="alternateBounds"/>
                    </mxGeometry>
                </mxCell>
                <mxCell id="74" value="" style="endArrow=none;dashed=1;html=1;entryX=0.5;entryY=1;entryDx=0;entryDy=0;exitX=0.628;exitY=0.077;exitDx=0;exitDy=0;exitPerimeter=0;" parent="4" source="10" target="61" edge="1">
                    <mxGeometry width="50" height="50" relative="1" as="geometry">
                        <mxPoint x="550" y="359.07429338103753" as="sourcePoint"/>
                        <mxPoint x="574.3243243243244" y="241.83196504747497" as="targetPoint"/>
                    </mxGeometry>
                </mxCell>
                <mxCell id="77" value="" style="strokeColor=#dddddd;shadow=1;strokeWidth=1;rounded=1;absoluteArcSize=1;arcSize=2;" parent="4" vertex="1">
                    <mxGeometry x="40" y="230.27286225402503" width="330" height="64.40071556350625" as="geometry"/>
                </mxCell>
                <mxCell id="78" value="Pub/Sub" style="editableCssRules=.*;html=1;fontColor=#999999;shape=image;verticalLabelPosition=middle;verticalAlign=middle;labelPosition=right;align=left;spacingLeft=20;part=1;points=[];imageAspect=0;image=data:image/svg+xml,PHN2ZyB4bWxucz0iaHR0cDovL3d3dy53My5vcmcvMjAwMC9zdmciIHhtbG5zOnY9Imh0dHBzOi8vdmVjdGEuaW8vbmFubyIgd2lkdGg9IjE4LjMxOTk5OTY5NDgyNDIyIiBoZWlnaHQ9IjIwLjAwMDAwMTkwNzM0ODYzMyIgdmlld0JveD0iMCAwIDE4LjMxOTk5OTY5NDgyNDIyIDIwLjAwMDAwMTkwNzM0ODYzMyI+JiN4YTsJPHN0eWxlIHR5cGU9InRleHQvY3NzIj4mI3hhOwkuc3Qwe2ZpbGw6IzY2OWRmNjt9JiN4YTsJLnN0MXtmaWxsOiM0Mjg1ZjQ7fSYjeGE7CS5zdDJ7ZmlsbDojYWVjYmZhO30mI3hhOwk8L3N0eWxlPiYjeGE7CTxkZWZzPiYjeGE7CQk8ZmlsdGVyIGlkPSJBIiB4PSI0LjY0IiB5PSI0LjE5IiB3aWR0aD0iMTQuNzMiIGhlaWdodD0iMTIuNzYiIGZpbHRlclVuaXRzPSJ1c2VyU3BhY2VPblVzZSIgY29sb3ItaW50ZXJwb2xhdGlvbi1maWx0ZXJzPSJzUkdCIj4mI3hhOwkJCTxmZUZsb29kIGZsb29kLWNvbG9yPSIjZmZmIi8+JiN4YTsJCQk8ZmVCbGVuZCBpbj0iU291cmNlR3JhcGhpYyIvPiYjeGE7CQk8L2ZpbHRlcj4mI3hhOwkJPG1hc2sgaWQ9IkIiIHg9IjQuNjQiIHk9IjQuMTkiIHdpZHRoPSIxNC43MyIgaGVpZ2h0PSIxMi43NiIgbWFza1VuaXRzPSJ1c2VyU3BhY2VPblVzZSI+JiN4YTsJCQk8Y2lyY2xlIGN4PSIxMiIgY3k9IjEyLjIzIiByPSIzLjU4IiBmaWx0ZXI9InVybCgjQSkiLz4mI3hhOwkJPC9tYXNrPiYjeGE7CTwvZGVmcz4mI3hhOwk8ZyBjbGFzcz0ic3QwIj4mI3hhOwkJPGNpcmNsZSBjeD0iMTYuMTMiIGN5PSI2LjIxIiByPSIxLjcyIi8+JiN4YTsJCTxjaXJjbGUgY3g9IjIuMTkiIGN5PSI2LjIxIiByPSIxLjcyIi8+JiN4YTsJCTxjaXJjbGUgY3g9IjkuMTYiIGN5PSIxOC4yOCIgcj0iMS43MiIvPiYjeGE7CTwvZz4mI3hhOwk8ZyBtYXNrPSJ1cmwoI0IpIiB0cmFuc2Zvcm09InRyYW5zbGF0ZSgtMi44NCAtMikiPiYjeGE7CQk8cGF0aCB0cmFuc2Zvcm09Im1hdHJpeCguNSAtLjg3IC44NyAuNSAtNC41OSAyMC41MykiIGQ9Ik0xNC42OSAxMC4yMmgxLjU5djguMDRoLTEuNTl6IiBjbGFzcz0ic3QxIi8+JiN4YTsJCTxwYXRoIHRyYW5zZm9ybT0icm90YXRlKDMzMCA4LjUyMyAxNC4yNDQpIiBkPSJNNC40OSAxMy40NWg4LjA0djEuNTlINC40OXoiIGNsYXNzPSJzdDEiLz4mI3hhOwkJPHBhdGggZD0iTTExLjIgNC4xOWgxLjU5djguMDRIMTEuMnoiIGNsYXNzPSJzdDEiLz4mI3hhOwk8L2c+JiN4YTsJPGcgY2xhc3M9InN0MiI+JiN4YTsJCTxjaXJjbGUgY3g9IjkuMTYiIGN5PSIxMC4yMyIgcj0iMi43OCIvPiYjeGE7CQk8Y2lyY2xlIGN4PSIyLjE5IiBjeT0iMTQuMjUiIHI9IjIuMTkiLz4mI3hhOwkJPGNpcmNsZSBjeD0iMTYuMTMiIGN5PSIxNC4yNSIgcj0iMi4xOSIvPiYjeGE7CQk8Y2lyY2xlIGN4PSI5LjE2IiBjeT0iMi4xOSIgcj0iMi4xOSIvPiYjeGE7CTwvZz4mI3hhOzwvc3ZnPg==;" parent="77" vertex="1">
                    <mxGeometry width="27" height="30" relative="1" as="geometry">
                        <mxPoint x="16" y="15" as="offset"/>
                    </mxGeometry>
                </mxCell>
                <mxCell id="79" value="" style="strokeColor=#dddddd;shadow=1;strokeWidth=1;rounded=1;absoluteArcSize=1;arcSize=2;" parent="4" vertex="1">
                    <mxGeometry x="40" y="149.99869409660107" width="330" height="64.40071556350625" as="geometry"/>
                </mxCell>
                <mxCell id="80" value="&lt;b&gt;&lt;font color=&quot;#000000&quot;&gt;datalake-trigger-ingestion-job&lt;/font&gt;&lt;br&gt;&lt;/b&gt;Cloud Functions" style="editableCssRules=.*;html=1;fontColor=#999999;shape=image;verticalLabelPosition=middle;verticalAlign=middle;labelPosition=right;align=left;spacingLeft=20;part=1;points=[];imageAspect=0;image=data:image/svg+xml,PHN2ZyB4bWxucz0iaHR0cDovL3d3dy53My5vcmcvMjAwMC9zdmciIHhtbG5zOnY9Imh0dHBzOi8vdmVjdGEuaW8vbmFubyIgd2lkdGg9IjIwIiBoZWlnaHQ9IjE5Ljk4OTk5OTc3MTExODE2NCIgdmlld0JveD0iMCAwIDIwIDE5Ljk4OTk5OTc3MTExODE2NCI+JiN4YTsJPHN0eWxlIHR5cGU9InRleHQvY3NzIj4mI3hhOwkuc3Qwe2ZpbGw6IzQyODVmNDt9JiN4YTsJLnN0MXtmaWxsOiM2NjlkZjY7fSYjeGE7CS5zdDJ7ZmlsbDojYWVjYmZhO30mI3hhOwk8L3N0eWxlPiYjeGE7CTxwYXRoIGNsYXNzPSJzdDEiIGQ9Ik0zIDMuOTlMMCA2LjQydjcuMTNsMyAyLjQ0eiIvPiYjeGE7CTxwYXRoIGNsYXNzPSJzdDAiIGQ9Ik0zIDMuOTlsLTMgNCAzLTJ6bS0zIDhsMyA0di0yeiIvPiYjeGE7CTxwYXRoIGNsYXNzPSJzdDIiIGQ9Ik0wIDE1Ljk5bDQgNCAyLTItNi02em0uMDEtOEw1Ljk5IDJsLTItMkwwIDMuOTl6Ii8+JiN4YTsJPHBhdGggY2xhc3M9InN0MSIgZD0iTTE3IDE2bDMtMi40MlY2LjQ0TDE3IDR6Ii8+JiN4YTsJPHBhdGggY2xhc3M9InN0MCIgZD0iTTE3IDE2bDMtNC0zIDJ6bTMtOGwtMy00djJ6Ii8+JiN4YTsJPGcgY2xhc3M9InN0MiI+JiN4YTsJCTxwYXRoIGQ9Ik0yMCA0bC00LTQtMiAyIDYgNnptLS4wMSA4bC01Ljk4IDUuOTkgMiAyTDIwIDE2eiIvPiYjeGE7CQk8Y2lyY2xlIGN4PSI2IiBjeT0iOS45OSIgcj0iMSIvPiYjeGE7CQk8Y2lyY2xlIGN4PSIxMCIgY3k9IjkuOTkiIHI9IjEiLz4mI3hhOwkJPGNpcmNsZSBjeD0iMTMuOTkiIGN5PSI5Ljk5IiByPSIxIi8+JiN4YTsJPC9nPiYjeGE7PC9zdmc+;" parent="79" vertex="1">
                    <mxGeometry width="30" height="24" relative="1" as="geometry">
                        <mxPoint x="15" y="18" as="offset"/>
                    </mxGeometry>
                </mxCell>
                <mxCell id="81" value="" style="endArrow=none;dashed=1;html=1;entryX=0.595;entryY=0.989;entryDx=0;entryDy=0;exitX=0.085;exitY=0.017;exitDx=0;exitDy=0;exitPerimeter=0;entryPerimeter=0;" parent="4" source="9" target="77" edge="1">
                    <mxGeometry width="50" height="50" relative="1" as="geometry">
                        <mxPoint x="170" y="283.94012522361356" as="sourcePoint"/>
                        <mxPoint x="220" y="230.27286225402503" as="targetPoint"/>
                    </mxGeometry>
                </mxCell>
                <mxCell id="84" value="" style="strokeColor=#dddddd;shadow=1;strokeWidth=1;rounded=1;absoluteArcSize=1;arcSize=2;" parent="4" vertex="1">
                    <mxGeometry x="40" y="70" width="330" height="65.41" as="geometry"/>
                </mxCell>
                <mxCell id="85" value="&lt;font color=&quot;#000000&quot;&gt;&lt;b&gt;pyspark-ingest-to-iceberg&lt;/b&gt;&lt;/font&gt;&lt;br&gt;Dataproc Serverless" style="editableCssRules=.*;html=1;fontColor=#999999;shape=image;verticalLabelPosition=middle;verticalAlign=middle;labelPosition=right;align=left;spacingLeft=20;part=1;points=[];imageAspect=0;image=data:image/svg+xml,PHN2ZyB4bWxucz0iaHR0cDovL3d3dy53My5vcmcvMjAwMC9zdmciIHhtbG5zOnY9Imh0dHBzOi8vdmVjdGEuaW8vbmFubyIgd2lkdGg9IjE5LjM2MzAxMjMxMzg0Mjc3MyIgaGVpZ2h0PSIxNy45NzU1MjY4MDk2OTIzODMiIHZpZXdCb3g9IjAuMDAwNTYwMDI1NjI2MzI3ODQyNSAwLjYxOTYyOTc0MDcxNTAyNjkgMTkuMzYzMDEyMzEzODQyNzczIDE3Ljk3NTUyNjgwOTY5MjM4MyI+JiN4YTsJPHN0eWxlIHR5cGU9InRleHQvY3NzIj4mI3hhOwkuc3Qwe2ZpbGwtcnVsZTpldmVub2RkO30mI3hhOwkuc3Qxe2ZpbGw6I2FlY2JmYTt9JiN4YTsJLnN0MntmaWxsOiM0Mjg1ZjQ7fSYjeGE7CS5zdDN7ZmlsbDojNjY5ZGY2O30mI3hhOwk8L3N0eWxlPiYjeGE7CTxnIGNsYXNzPSJzdDAgc3QxIj4mI3hhOwkJPHBhdGggZD0iTTQuNjkgMTYuNGwxMC4xOS01Ljg5Ljk3IDEuNjktMTAuMTggNS44OHoiLz4mI3hhOwkJPHBhdGggZD0iTTcuNSA0LjR2MTAuMzVsLTEuODcgMS40MVY0LjR6Ii8+JiN4YTsJCTxwYXRoIGQ9Ik0xNy40OSAxMS4ybC0uOTcgMS42OC04Ljk2LTUuMTktLjI2LTIuMzZ6Ii8+JiN4YTsJPC9nPiYjeGE7CTxwYXRoIGNsYXNzPSJzdDAgc3QyIiBkPSJNMTIuMzkgOC4yNkw3LjMgNS4zM2wuMjYgMi4zNiAxLjUxLjg2YTQgNCAwIDAgMCAzLjMyLS4yOXoiLz4mI3hhOwk8cGF0aCBjbGFzcz0ic3QwIHN0MSIgZD0iTTYuMTMgNi4yOWgwYTMuNzggMy43OCAwIDAgMSA1LjE2NS01LjE2M0EzLjc4IDMuNzggMCAwIDEgOS40IDguMThhMy44IDMuOCAwIDAgMS0zLjI3LTEuODl6TTExIDMuNDlhMS44NCAxLjg0IDAgMCAwLTEuNTktLjkyQTEuODMgMS44MyAwIDAgMCA3LjU3IDQuNGExLjg0IDEuODQgMCAwIDAgMi43OTQgMS43MDZBMS44NCAxLjg0IDAgMCAwIDExLjI0IDQuNGExLjggMS44IDAgMCAwLS4yNC0uOTF6Ii8+JiN4YTsJPHBhdGggY2xhc3M9InN0MCBzdDIiIGQ9Ik01LjYzIDEwLjk0djUuMjJsMS44Ny0xLjQxdi0xLjYzYTMuMjkgMy4yOSAwIDAgMC0xLjg3LTIuMTh6bTUuNyAzLjg3bDQuNTItMi42MS0yLjIxLTEtMS4yNS44YTQuMjMgNC4yMyAwIDAgMC0xLjA2IDIuODZ6Ii8+JiN4YTsJPHBhdGggY2xhc3M9InN0MCBzdDEiIGQ9Ik0uNTEgMTYuN2gwYTMuNzcgMy43NyAwIDAgMSAxLjM4LTUuMTYgMy43MiAzLjcyIDAgMCAxIDIuODYtLjM4QTMuNzggMy43OCAwIDEgMSAuNTEgMTYuN3ptNC44NS0yLjgxQTEuNzkgMS43OSAwIDAgMCA0LjI1IDEzYTEuODMgMS44MyAwIDAgMC0yLjA2IDIuNjloMGMuMzI5LjU2Ni45MzQuOTE0IDEuNTg5LjkxM2ExLjgzIDEuODMgMCAwIDAgMS41ODUtLjkyYy4zMjYtLjU2OC4zMjQtMS4yNjctLjAwNC0xLjgzM3ptNi45NyAyLjQ3aDBhMy43OSAzLjc5IDAgMCAxIDAtMy43NyAzLjc5IDMuNzkgMCAwIDEgNS4xNi0xLjM5IDMuNzggMy43OCAwIDAgMS0xLjg5IDcuMDQ0IDMuNzggMy43OCAwIDAgMS0zLjI3LTEuODg0em00Ljg2LTIuODFhMiAyIDAgMCAwLS42Ny0uNjcgMS44NSAxLjg1IDAgMCAwLTIuNTEuNjggMS44NiAxLjg2IDAgMCAwIDAgMS44MyAxLjgzIDEuODMgMCAwIDAgMi4wNy44NSAxLjgyIDEuODIgMCAwIDAgMS4xMS0uODUgMS44OCAxLjg4IDAgMCAwIDAtMS44NHoiLz4mI3hhOwk8cGF0aCBjbGFzcz0ic3QwIHN0MyIgZD0iTTcuNDkgMTQuMTVsLTIuOCAyLjI1IDIuODYtMS42NWE0LjA3IDQuMDcgMCAwIDAtLjA2LS42ek04LjE1IDhsLS41OS0zLjZ2My4yOWEzLjQ3IDMuNDcgMCAwIDAgLjU5LjI3em01LjE1IDMuNDdsMy4yMiAxLjQxLTIuODYtMS42NGExLjY5IDEuNjkgMCAwIDAtLjM2LjIzeiIvPiYjeGE7PC9zdmc+;" parent="84" vertex="1">
                    <mxGeometry width="30" height="28" relative="1" as="geometry">
                        <mxPoint x="15" y="16" as="offset"/>
                    </mxGeometry>
                </mxCell>
                <mxCell id="92" value="" style="strokeColor=#dddddd;shadow=1;strokeWidth=1;rounded=1;absoluteArcSize=1;arcSize=2;" parent="4" vertex="1">
                    <mxGeometry x="390" y="70" width="310" height="65.41" as="geometry"/>
                </mxCell>
                <mxCell id="93" value="BigLake - Iceberg catalog" style="editableCssRules=.*;html=1;fontColor=#999999;shape=image;verticalLabelPosition=middle;verticalAlign=middle;labelPosition=right;align=left;spacingLeft=20;part=1;points=[];imageAspect=0;image=data:image/svg+xml,PHN2ZyB4bWxucz0iaHR0cDovL3d3dy53My5vcmcvMjAwMC9zdmciIHhtbG5zOnY9Imh0dHBzOi8vdmVjdGEuaW8vbmFubyIgd2lkdGg9IjIwLjAwMTA0NTIyNzA1MDc4IiBoZWlnaHQ9IjIwLjAwMTA0NTIyNzA1MDc4IiBmaWxsLXJ1bGU9ImV2ZW5vZGQiIHZpZXdCb3g9IjAgMCAyMC4wMDEwNDUyMjcwNTA3OCAyMC4wMDEwNDUyMjcwNTA3OCI+JiN4YTsJPHN0eWxlIHR5cGU9InRleHQvY3NzIj4mI3hhOwkuc3Qwe2ZpbGw6I2FlY2JmYTt9JiN4YTsJLnN0MXtmaWxsOiM2NjlkZjY7fSYjeGE7CS5zdDJ7ZmlsbDojNDI4NWY0O30mI3hhOwk8L3N0eWxlPiYjeGE7CTxwYXRoIGNsYXNzPSJzdDAiIGQ9Ik00LjczIDguODN2Mi42M2E0LjkxIDQuOTEgMCAwIDAgMS43MSAxLjc0VjguODN6Ii8+JiN4YTsJPHBhdGggY2xhc3M9InN0MSIgZD0iTTcuODkgNi40MXY3LjUzQTcuNjIgNy42MiAwIDAgMCA5IDE0YTggOCAwIDAgMCAxIDBWNi40MXoiLz4mI3hhOwk8cGF0aCBjbGFzcz0ic3QwIiBkPSJNMTEuNjQgOS44NnYzLjI5YTUgNSAwIDAgMCAxLjctMS44MlY5Ljg2eiIvPiYjeGE7CTxwYXRoIGNsYXNzPSJzdDIiIGQ9Ik0xNS43NCAxNC4zMmwtMS40MiAxLjQyYS40Mi40MiAwIDAgMCAwIC42bDMuNTQgMy41NGEuNDIuNDIgMCAwIDAgLjU5IDBsMS40My0xLjQzYS40Mi40MiAwIDAgMCAwLS41OWwtMy41NC0zLjU0YS40Mi40MiAwIDAgMC0uNiAwIi8+JiN4YTsJPHBhdGggY2xhc3M9InN0MSIgZD0iTTkgMGE5IDkgMCAxIDAgMCAxOEE5IDkgMCAxIDAgOSAwbTAgMTUuNjlhNi42OCA2LjY4IDAgMCAxIC4wMDctMTMuMzYgNi42OCA2LjY4IDAgMCAxIDQuNzI3IDExLjQwM0E2LjY4IDYuNjggMCAwIDEgOSAxNS42OSIvPiYjeGE7PC9zdmc+;" parent="92" vertex="1">
                    <mxGeometry width="30" height="30" relative="1" as="geometry">
                        <mxPoint x="15" y="15" as="offset"/>
                    </mxGeometry>
                </mxCell>
                <mxCell id="2" value="&lt;h1 style=&quot;margin-top: 0px;&quot;&gt;Terraform - GCP provisioning of Data Lakehouse&lt;/h1&gt;&lt;p&gt;&lt;/p&gt;&lt;ul&gt;&lt;li&gt;This project builds a Data Lakehouse architecture with storage/compute separation using Apache Iceberg open storage format.&lt;/li&gt;&lt;li&gt;&lt;b&gt;It uses Cloud Functions + Cloud Dataproc + BigQuery/BigLake Iceberg &lt;/b&gt;for an&lt;span style=&quot;background-color: transparent;&quot;&gt;&amp;nbsp;&lt;/span&gt;&lt;span style=&quot;background-color: transparent;&quot; data-end=&quot;136&quot; data-start=&quot;120&quot;&gt;event-driven&lt;/span&gt;&lt;span style=&quot;background-color: transparent;&quot;&gt; and &lt;/span&gt;&lt;span style=&quot;background-color: transparent;&quot;&gt;architecture, leverageing GCP-native serverless services and Spark for scalable ingestion.&lt;/span&gt;&lt;/li&gt;&lt;/ul&gt;&lt;p&gt;&lt;/p&gt;&lt;p&gt;&lt;b&gt;Components:&lt;/b&gt;&lt;/p&gt;&lt;p&gt;&lt;/p&gt;&lt;ul&gt;&lt;li&gt;&lt;b&gt;GCS&lt;/b&gt;: storage for raw data (landingzone) and Iceberg tables&lt;/li&gt;&lt;li&gt;&lt;b&gt;Pub/sub and Cloud Function:&lt;/b&gt; Trigger for ingestion jobs&lt;/li&gt;&lt;li&gt;&lt;b&gt;Apache Spark (via Dataproc Serverless):&lt;/b&gt;&amp;nbsp; Ingests files and writes to &lt;span data-end=&quot;931&quot; data-start=&quot;913&quot;&gt;Iceberg tables&lt;/span&gt;&lt;/li&gt;&lt;li&gt;&lt;span data-end=&quot;931&quot; data-start=&quot;913&quot;&gt;&lt;b&gt;BigQuery BigLake&lt;/b&gt;: Iceberg catalog&lt;/span&gt;&lt;/li&gt;&lt;li&gt;&lt;span data-end=&quot;931&quot; data-start=&quot;913&quot;&gt;&lt;b&gt;BigQuery&lt;/b&gt;: Query engine&lt;/span&gt;&lt;/li&gt;&lt;/ul&gt;&lt;p&gt;&lt;/p&gt;&lt;p&gt;&lt;/p&gt;" style="text;html=1;whiteSpace=wrap;overflow=hidden;rounded=0;" parent="1" vertex="1">
                    <mxGeometry x="40" y="20" width="760" height="300" as="geometry"/>
                </mxCell>
                <mxCell id="13" value="&lt;span style=&quot;color: rgb(63, 63, 63);&quot;&gt;Resources provisioned via Terraform into an existing Google Cloud Platform project:&lt;/span&gt;" style="text;html=1;align=left;verticalAlign=middle;whiteSpace=wrap;rounded=0;fontStyle=1" parent="1" vertex="1">
                    <mxGeometry x="40" y="480" width="760" height="30" as="geometry"/>
                </mxCell>
                <mxCell id="87" value="Process Overview" style="swimlane;childLayout=stackLayout;horizontal=1;fillColor=none;horizontalStack=1;resizeParent=1;resizeParentMax=0;resizeLast=0;collapsible=0;strokeColor=none;stackBorder=10;stackSpacing=-12;resizable=1;align=left;points=[];whiteSpace=wrap;html=1;spacingTop=4;" parent="1" vertex="1">
                    <mxGeometry x="40" y="320" width="760" height="120" as="geometry"/>
                </mxCell>
                <mxCell id="88" value="New files dropped&lt;br&gt;&lt;div&gt;in &lt;b&gt;gcs bucket&lt;/b&gt;&lt;/div&gt;&lt;div&gt;&lt;i&gt;landingzone&lt;/i&gt;&lt;/div&gt;" style="shape=step;perimeter=stepPerimeter;fixedSize=1;points=[];whiteSpace=wrap;html=1;" parent="87" vertex="1">
                    <mxGeometry x="10" y="33" width="194" height="77" as="geometry"/>
                </mxCell>
                <mxCell id="89" value="&lt;b&gt;Pub/Sub&amp;nbsp;&lt;span style=&quot;background-color: transparent;&quot;&gt;Notification&lt;/span&gt;&lt;/b&gt;&lt;div&gt;&lt;span style=&quot;background-color: transparent;&quot;&gt;triggered on bucket&lt;/span&gt;&lt;/div&gt;" style="shape=step;perimeter=stepPerimeter;fixedSize=1;points=[];whiteSpace=wrap;html=1;" parent="87" vertex="1">
                    <mxGeometry x="192" y="33" width="194" height="77" as="geometry"/>
                </mxCell>
                <mxCell id="90" value="&lt;b&gt;Cloud function&lt;/b&gt;&lt;div&gt;invoked by pub/sub,&lt;/div&gt;&lt;div&gt;starting new&lt;/div&gt;&lt;div&gt;ingestion job&lt;/div&gt;" style="shape=step;perimeter=stepPerimeter;fixedSize=1;points=[];whiteSpace=wrap;html=1;" parent="87" vertex="1">
                    <mxGeometry x="374" y="33" width="194" height="77" as="geometry"/>
                </mxCell>
                <mxCell id="91" value="&lt;b&gt;Dataproc&amp;nbsp;&lt;span style=&quot;background-color: transparent;&quot;&gt;Spark job&lt;/span&gt;&lt;/b&gt;&lt;div&gt;&lt;span style=&quot;background-color: transparent;&quot;&gt;started, ingesting new file&lt;/span&gt;&lt;/div&gt;&lt;div&gt;&lt;span style=&quot;background-color: transparent;&quot;&gt;to Iceberg table&lt;/span&gt;&lt;/div&gt;" style="shape=step;perimeter=stepPerimeter;fixedSize=1;points=[];whiteSpace=wrap;html=1;" parent="87" vertex="1">
                    <mxGeometry x="556" y="33" width="194" height="77" as="geometry"/>
                </mxCell>
            </root>
        </mxGraphModel>
    </diagram>
</mxfile>